G04 #@! TF.GenerationSoftware,KiCad,Pcbnew,9.0.0*
G04 #@! TF.CreationDate,2025-04-22T19:19:30+02:00*
G04 #@! TF.ProjectId,bio_robots,62696f5f-726f-4626-9f74-732e6b696361,rev?*
G04 #@! TF.SameCoordinates,Original*
G04 #@! TF.FileFunction,Paste,Top*
G04 #@! TF.FilePolarity,Positive*
%FSLAX46Y46*%
G04 Gerber Fmt 4.6, Leading zero omitted, Abs format (unit mm)*
G04 Created by KiCad (PCBNEW 9.0.0) date 2025-04-22 19:19:30*
%MOMM*%
%LPD*%
G01*
G04 APERTURE LIST*
G04 Aperture macros list*
%AMRoundRect*
0 Rectangle with rounded corners*
0 $1 Rounding radius*
0 $2 $3 $4 $5 $6 $7 $8 $9 X,Y pos of 4 corners*
0 Add a 4 corners polygon primitive as box body*
4,1,4,$2,$3,$4,$5,$6,$7,$8,$9,$2,$3,0*
0 Add four circle primitives for the rounded corners*
1,1,$1+$1,$2,$3*
1,1,$1+$1,$4,$5*
1,1,$1+$1,$6,$7*
1,1,$1+$1,$8,$9*
0 Add four rect primitives between the rounded corners*
20,1,$1+$1,$2,$3,$4,$5,0*
20,1,$1+$1,$4,$5,$6,$7,0*
20,1,$1+$1,$6,$7,$8,$9,0*
20,1,$1+$1,$8,$9,$2,$3,0*%
G04 Aperture macros list end*
%ADD10RoundRect,0.237500X-0.237500X0.250000X-0.237500X-0.250000X0.237500X-0.250000X0.237500X0.250000X0*%
%ADD11RoundRect,0.237500X0.237500X-0.250000X0.237500X0.250000X-0.237500X0.250000X-0.237500X-0.250000X0*%
%ADD12RoundRect,0.160000X0.197500X0.160000X-0.197500X0.160000X-0.197500X-0.160000X0.197500X-0.160000X0*%
%ADD13R,1.000000X0.400000*%
%ADD14R,0.900000X1.550000*%
%ADD15R,0.599999X1.000000*%
%ADD16RoundRect,0.155000X0.212500X0.155000X-0.212500X0.155000X-0.212500X-0.155000X0.212500X-0.155000X0*%
%ADD17RoundRect,0.155000X0.155000X-0.212500X0.155000X0.212500X-0.155000X0.212500X-0.155000X-0.212500X0*%
%ADD18RoundRect,0.150000X-0.587500X-0.150000X0.587500X-0.150000X0.587500X0.150000X-0.587500X0.150000X0*%
%ADD19RoundRect,0.050000X-0.050000X0.225000X-0.050000X-0.225000X0.050000X-0.225000X0.050000X0.225000X0*%
%ADD20RoundRect,0.050000X-0.225000X-0.050000X0.225000X-0.050000X0.225000X0.050000X-0.225000X0.050000X0*%
G04 APERTURE END LIST*
D10*
X111500000Y-111087500D03*
X111500000Y-112912500D03*
D11*
X109990000Y-98025000D03*
X109990000Y-96200000D03*
D12*
X72197500Y-89000000D03*
X71002500Y-89000000D03*
D13*
X80400000Y-91750000D03*
X80400000Y-91100000D03*
X80400000Y-90450000D03*
X78400000Y-90450000D03*
X78400000Y-91100000D03*
X78400000Y-91750000D03*
D14*
X97040000Y-137056362D03*
X93040000Y-137056362D03*
X93040000Y-143006362D03*
X97040000Y-143006362D03*
D15*
X74149999Y-96875001D03*
X75100000Y-96875001D03*
X76049998Y-96875001D03*
X76049998Y-94125001D03*
X74149999Y-94125001D03*
D16*
X72667500Y-94067500D03*
X71532500Y-94067500D03*
D17*
X73100000Y-87567500D03*
X73100000Y-86432500D03*
D10*
X101100000Y-84487500D03*
X101100000Y-86312500D03*
D11*
X118700000Y-128412500D03*
X118700000Y-126587500D03*
D18*
X110600000Y-128500000D03*
X110600000Y-130400000D03*
X112475000Y-129450000D03*
D16*
X72167500Y-91500000D03*
X71032500Y-91500000D03*
D10*
X101100000Y-87787500D03*
X101100000Y-89612500D03*
D11*
X97500000Y-81825000D03*
X97500000Y-80000000D03*
D19*
X76100000Y-89200000D03*
X75700000Y-89200000D03*
X75300000Y-89200000D03*
X74900000Y-89200000D03*
X74500000Y-89200000D03*
X74100000Y-89200000D03*
D20*
X73600000Y-89700000D03*
X73600000Y-90100000D03*
X73600000Y-90500000D03*
X73600000Y-90900000D03*
X73600000Y-91300000D03*
X73600000Y-91700000D03*
D19*
X74100000Y-92200000D03*
X74500000Y-92200000D03*
X74900000Y-92200000D03*
X75300000Y-92200000D03*
X75700000Y-92200000D03*
X76100000Y-92200000D03*
D20*
X76600000Y-91700000D03*
X76600000Y-91300000D03*
X76600000Y-90900000D03*
X76600000Y-90500000D03*
X76600000Y-90100000D03*
X76600000Y-89700000D03*
D11*
X111500000Y-99912500D03*
X111500000Y-98087500D03*
X108000000Y-130362500D03*
X108000000Y-128537500D03*
D13*
X80400000Y-89000000D03*
X80400000Y-88350000D03*
X80400000Y-87700000D03*
X78400000Y-87700000D03*
X78400000Y-88350000D03*
X78400000Y-89000000D03*
M02*
