G04 #@! TF.GenerationSoftware,KiCad,Pcbnew,9.0.0*
G04 #@! TF.CreationDate,2025-04-22T19:19:30+02:00*
G04 #@! TF.ProjectId,bio_robots,62696f5f-726f-4626-9f74-732e6b696361,rev?*
G04 #@! TF.SameCoordinates,Original*
G04 #@! TF.FileFunction,Paste,Bot*
G04 #@! TF.FilePolarity,Positive*
%FSLAX46Y46*%
G04 Gerber Fmt 4.6, Leading zero omitted, Abs format (unit mm)*
G04 Created by KiCad (PCBNEW 9.0.0) date 2025-04-22 19:19:30*
%MOMM*%
%LPD*%
G01*
G04 APERTURE LIST*
G04 Aperture macros list*
%AMRoundRect*
0 Rectangle with rounded corners*
0 $1 Rounding radius*
0 $2 $3 $4 $5 $6 $7 $8 $9 X,Y pos of 4 corners*
0 Add a 4 corners polygon primitive as box body*
4,1,4,$2,$3,$4,$5,$6,$7,$8,$9,$2,$3,0*
0 Add four circle primitives for the rounded corners*
1,1,$1+$1,$2,$3*
1,1,$1+$1,$4,$5*
1,1,$1+$1,$6,$7*
1,1,$1+$1,$8,$9*
0 Add four rect primitives between the rounded corners*
20,1,$1+$1,$2,$3,$4,$5,0*
20,1,$1+$1,$4,$5,$6,$7,0*
20,1,$1+$1,$6,$7,$8,$9,0*
20,1,$1+$1,$8,$9,$2,$3,0*%
G04 Aperture macros list end*
%ADD10RoundRect,0.160000X0.160000X-0.197500X0.160000X0.197500X-0.160000X0.197500X-0.160000X-0.197500X0*%
%ADD11RoundRect,0.250000X-0.337500X-0.475000X0.337500X-0.475000X0.337500X0.475000X-0.337500X0.475000X0*%
%ADD12RoundRect,0.155000X0.155000X-0.212500X0.155000X0.212500X-0.155000X0.212500X-0.155000X-0.212500X0*%
%ADD13R,0.850000X1.450000*%
%ADD14R,0.850000X1.050000*%
%ADD15R,4.700000X3.750000*%
%ADD16RoundRect,0.237500X-0.237500X0.250000X-0.237500X-0.250000X0.237500X-0.250000X0.237500X0.250000X0*%
%ADD17RoundRect,0.237500X0.237500X-0.300000X0.237500X0.300000X-0.237500X0.300000X-0.237500X-0.300000X0*%
%ADD18RoundRect,0.237500X0.237500X-0.250000X0.237500X0.250000X-0.237500X0.250000X-0.237500X-0.250000X0*%
%ADD19RoundRect,0.237500X-0.250000X-0.237500X0.250000X-0.237500X0.250000X0.237500X-0.250000X0.237500X0*%
%ADD20RoundRect,0.155000X-0.155000X0.212500X-0.155000X-0.212500X0.155000X-0.212500X0.155000X0.212500X0*%
%ADD21R,0.558800X1.092200*%
%ADD22RoundRect,0.155000X0.212500X0.155000X-0.212500X0.155000X-0.212500X-0.155000X0.212500X-0.155000X0*%
%ADD23R,0.475000X0.300000*%
%ADD24R,0.750000X0.650000*%
%ADD25RoundRect,0.062500X0.187500X0.062500X-0.187500X0.062500X-0.187500X-0.062500X0.187500X-0.062500X0*%
%ADD26RoundRect,0.237500X0.250000X0.237500X-0.250000X0.237500X-0.250000X-0.237500X0.250000X-0.237500X0*%
%ADD27RoundRect,0.237500X-0.237500X0.300000X-0.237500X-0.300000X0.237500X-0.300000X0.237500X0.300000X0*%
%ADD28RoundRect,0.237500X-0.300000X-0.237500X0.300000X-0.237500X0.300000X0.237500X-0.300000X0.237500X0*%
%ADD29RoundRect,0.150000X-0.150000X0.587500X-0.150000X-0.587500X0.150000X-0.587500X0.150000X0.587500X0*%
%ADD30RoundRect,0.150000X-0.587500X-0.150000X0.587500X-0.150000X0.587500X0.150000X-0.587500X0.150000X0*%
%ADD31R,0.450000X1.750000*%
%ADD32RoundRect,0.160000X-0.160000X0.197500X-0.160000X-0.197500X0.160000X-0.197500X0.160000X0.197500X0*%
%ADD33RoundRect,0.237500X0.300000X0.237500X-0.300000X0.237500X-0.300000X-0.237500X0.300000X-0.237500X0*%
%ADD34RoundRect,0.160000X-0.197500X-0.160000X0.197500X-0.160000X0.197500X0.160000X-0.197500X0.160000X0*%
%ADD35RoundRect,0.062500X-0.187500X-0.062500X0.187500X-0.062500X0.187500X0.062500X-0.187500X0.062500X0*%
G04 APERTURE END LIST*
D10*
X85531700Y-132444999D03*
X85531700Y-131249999D03*
D11*
X98562500Y-103200000D03*
X100637500Y-103200000D03*
D12*
X87537501Y-130065000D03*
X87537501Y-128930000D03*
D10*
X102511598Y-129097500D03*
X102511598Y-127902500D03*
D13*
X93445000Y-142381362D03*
X92175000Y-142381362D03*
X90905000Y-142381362D03*
X89635000Y-142381362D03*
D14*
X89635000Y-136681362D03*
X90905000Y-136681362D03*
X92175000Y-136681362D03*
X93445000Y-136681362D03*
D15*
X91540000Y-139081362D03*
D16*
X108000000Y-104587500D03*
X108000000Y-106412500D03*
D17*
X88737500Y-130060000D03*
X88737500Y-128335000D03*
D18*
X75600000Y-128812500D03*
X75600000Y-126987500D03*
D16*
X113700000Y-77587500D03*
X113700000Y-79412500D03*
D18*
X78750000Y-133822499D03*
X78750000Y-131997499D03*
D19*
X97337501Y-126000000D03*
X99162501Y-126000000D03*
D18*
X83000000Y-101325000D03*
X83000000Y-99500000D03*
D20*
X109750000Y-130682500D03*
X109750000Y-131817500D03*
D16*
X80237501Y-130185000D03*
X80237501Y-132010000D03*
D21*
X81781701Y-127797500D03*
X85693301Y-127797500D03*
D16*
X107000000Y-96087500D03*
X107000000Y-97912500D03*
D12*
X101511598Y-130767501D03*
X101511598Y-129632501D03*
D22*
X80305000Y-128897500D03*
X79170000Y-128897500D03*
D16*
X98000000Y-108587500D03*
X98000000Y-110412500D03*
D13*
X103700000Y-137200000D03*
X104970000Y-137200000D03*
X106240000Y-137200000D03*
X107510000Y-137200000D03*
D14*
X107510000Y-142900000D03*
X106240000Y-142900000D03*
X104970000Y-142900000D03*
X103700000Y-142900000D03*
D15*
X105605000Y-140500000D03*
D21*
X97294200Y-123750001D03*
X101205800Y-123750001D03*
D23*
X95838000Y-124000000D03*
X95838000Y-124500000D03*
X95838000Y-125000000D03*
X95838000Y-125500000D03*
X94162000Y-125500000D03*
X94162000Y-125000000D03*
X94162000Y-124500000D03*
X94162000Y-124000000D03*
D24*
X83387501Y-131247501D03*
X83387501Y-130447501D03*
D25*
X84337501Y-130097501D03*
X84337501Y-130597501D03*
X84337501Y-131097501D03*
X84337501Y-131597501D03*
X82437501Y-131597501D03*
X82437501Y-131097501D03*
X82437501Y-130597501D03*
X82437501Y-130097501D03*
D26*
X82912500Y-79000000D03*
X81087500Y-79000000D03*
X108412500Y-91000000D03*
X106587500Y-91000000D03*
D27*
X90900000Y-102937500D03*
X90900000Y-104662500D03*
D18*
X93200000Y-79425000D03*
X93200000Y-77600000D03*
D21*
X106811599Y-132700000D03*
X102899999Y-132700000D03*
D19*
X94087500Y-109300000D03*
X95912500Y-109300000D03*
D18*
X93200000Y-76000000D03*
X93200000Y-74175000D03*
D16*
X109961598Y-126962499D03*
X109961598Y-128787499D03*
D28*
X92712500Y-91600000D03*
X94437500Y-91600000D03*
D29*
X99550000Y-75500000D03*
X101450000Y-75500000D03*
X100500000Y-77375000D03*
D30*
X89000000Y-78000000D03*
X89000000Y-76100000D03*
X90875000Y-77050000D03*
D18*
X108455799Y-130712500D03*
X108455799Y-128887500D03*
D13*
X100510000Y-142381361D03*
X99240000Y-142381361D03*
X97970000Y-142381361D03*
X96700000Y-142381361D03*
D14*
X96700000Y-136681361D03*
X97970000Y-136681361D03*
X99240000Y-136681361D03*
X100510000Y-136681361D03*
D15*
X98605000Y-139081361D03*
D27*
X94600000Y-102937500D03*
X94600000Y-104662500D03*
D31*
X91700000Y-93750000D03*
X92350000Y-93750000D03*
X93000000Y-93750000D03*
X93650000Y-93750000D03*
X94300000Y-93750000D03*
X94950000Y-93750000D03*
X95600000Y-93750000D03*
X96250000Y-93750000D03*
X96900000Y-93750000D03*
X97550000Y-93750000D03*
X98200000Y-93750000D03*
X98850000Y-93750000D03*
X98850000Y-100950000D03*
X98200000Y-100950000D03*
X97550000Y-100950000D03*
X96900000Y-100950000D03*
X96250000Y-100950000D03*
X95600000Y-100950000D03*
X94950000Y-100950000D03*
X94300000Y-100950000D03*
X93650000Y-100950000D03*
X93000000Y-100950000D03*
X92350000Y-100950000D03*
X91700000Y-100950000D03*
D21*
X92750001Y-123750000D03*
X88838401Y-123750000D03*
D26*
X101412500Y-73500000D03*
X99587500Y-73500000D03*
D32*
X103511600Y-127902500D03*
X103511600Y-129097500D03*
D33*
X97937500Y-91600000D03*
X96212500Y-91600000D03*
D19*
X90837499Y-125999999D03*
X92662499Y-125999999D03*
D17*
X100211598Y-130962500D03*
X100211598Y-129237500D03*
D34*
X94402500Y-126700000D03*
X95597500Y-126700000D03*
D32*
X86531701Y-131250000D03*
X86531701Y-132445000D03*
D24*
X105661598Y-129500000D03*
X105661598Y-130300000D03*
D35*
X104711598Y-130650000D03*
X104711598Y-130150000D03*
X104711598Y-129650000D03*
X104711598Y-129150000D03*
X106611598Y-129150000D03*
X106611598Y-129650000D03*
X106611598Y-130150000D03*
X106611598Y-130650000D03*
D26*
X101412500Y-79500000D03*
X99587500Y-79500000D03*
D13*
X82590000Y-137200000D03*
X83860000Y-137200000D03*
X85130000Y-137200000D03*
X86400000Y-137200000D03*
D14*
X86400000Y-142900000D03*
X85130000Y-142900000D03*
X83860000Y-142900000D03*
X82590000Y-142900000D03*
D15*
X84495000Y-140500000D03*
M02*
