G04 #@! TF.GenerationSoftware,KiCad,Pcbnew,9.0.0*
G04 #@! TF.CreationDate,2025-04-22T19:19:30+02:00*
G04 #@! TF.ProjectId,bio_robots,62696f5f-726f-4626-9f74-732e6b696361,rev?*
G04 #@! TF.SameCoordinates,Original*
G04 #@! TF.FileFunction,Other,User*
%FSLAX46Y46*%
G04 Gerber Fmt 4.6, Leading zero omitted, Abs format (unit mm)*
G04 Created by KiCad (PCBNEW 9.0.0) date 2025-04-22 19:19:30*
%MOMM*%
%LPD*%
G01*
G04 APERTURE LIST*
%ADD10C,0.050000*%
%ADD11C,0.100000*%
%ADD12C,0.152400*%
G04 APERTURE END LIST*
D10*
X85061700Y-130747499D02*
X85061700Y-132947499D01*
X85061700Y-132947499D02*
X86001700Y-132947499D01*
X86001700Y-130747499D02*
X85061700Y-130747499D01*
X86001700Y-132947499D02*
X86001700Y-130747499D01*
X97720000Y-102220000D02*
X97720000Y-104180000D01*
X97720000Y-104180000D02*
X101480000Y-104180000D01*
X101480000Y-102220000D02*
X97720000Y-102220000D01*
X101480000Y-104180000D02*
X101480000Y-102220000D01*
X87077501Y-128417500D02*
X87077501Y-130577500D01*
X87077501Y-130577500D02*
X87997501Y-130577500D01*
X87997501Y-128417500D02*
X87077501Y-128417500D01*
X87997501Y-130577500D02*
X87997501Y-128417500D01*
X102041598Y-127400000D02*
X102041598Y-129600000D01*
X102041598Y-129600000D02*
X102981598Y-129600000D01*
X102981598Y-127400000D02*
X102041598Y-127400000D01*
X102981598Y-129600000D02*
X102981598Y-127400000D01*
D11*
X88040000Y-135156362D02*
X88040000Y-144581362D01*
X88040000Y-144581362D02*
X95040000Y-144581362D01*
X95040000Y-135156362D02*
X88040000Y-135156362D01*
X95040000Y-144581362D02*
X95040000Y-135156362D01*
D10*
X96000000Y-121600000D02*
G75*
G02*
X94000000Y-121600000I-1000000J0D01*
G01*
X94000000Y-121600000D02*
G75*
G02*
X96000000Y-121600000I1000000J0D01*
G01*
X107270000Y-103850000D02*
X107270000Y-107150000D01*
X107270000Y-107150000D02*
X108730000Y-107150000D01*
X108730000Y-103850000D02*
X107270000Y-103850000D01*
X108730000Y-107150000D02*
X108730000Y-103850000D01*
X88007500Y-127547500D02*
X88007500Y-130847500D01*
X88007500Y-130847500D02*
X89467500Y-130847500D01*
X89467500Y-127547500D02*
X88007500Y-127547500D01*
X89467500Y-130847500D02*
X89467500Y-127547500D01*
X74870000Y-126250000D02*
X74870000Y-129550000D01*
X74870000Y-129550000D02*
X76330000Y-129550000D01*
X76330000Y-126250000D02*
X74870000Y-126250000D01*
X76330000Y-129550000D02*
X76330000Y-126250000D01*
D12*
X92244100Y-80345700D02*
X97755900Y-80345700D01*
X92244100Y-85654300D02*
X92244100Y-80345700D01*
X97755900Y-80345700D02*
X97755900Y-85654300D01*
X97755900Y-85654300D02*
X92244100Y-85654300D01*
D10*
X112970000Y-76850000D02*
X112970000Y-80150000D01*
X112970000Y-80150000D02*
X114430000Y-80150000D01*
X114430000Y-76850000D02*
X112970000Y-76850000D01*
X114430000Y-80150000D02*
X114430000Y-76850000D01*
X78020000Y-131259999D02*
X78020000Y-134559999D01*
X78020000Y-134559999D02*
X79480000Y-134559999D01*
X79480000Y-131259999D02*
X78020000Y-131259999D01*
X79480000Y-134559999D02*
X79480000Y-131259999D01*
X96600001Y-125270000D02*
X96600001Y-126730000D01*
X96600001Y-126730000D02*
X99900001Y-126730000D01*
X99900001Y-125270000D02*
X96600001Y-125270000D01*
X99900001Y-126730000D02*
X99900001Y-125270000D01*
X82270000Y-98762500D02*
X82270000Y-102062500D01*
X82270000Y-102062500D02*
X83730000Y-102062500D01*
X83730000Y-98762500D02*
X82270000Y-98762500D01*
X83730000Y-102062500D02*
X83730000Y-98762500D01*
X109290000Y-130170000D02*
X109290000Y-132330000D01*
X109290000Y-132330000D02*
X110210000Y-132330000D01*
X110210000Y-130170000D02*
X109290000Y-130170000D01*
X110210000Y-132330000D02*
X110210000Y-130170000D01*
X108155799Y-127300000D02*
G75*
G02*
X106155799Y-127300000I-1000000J0D01*
G01*
X106155799Y-127300000D02*
G75*
G02*
X108155799Y-127300000I1000000J0D01*
G01*
X79507501Y-129447500D02*
X79507501Y-132747500D01*
X79507501Y-132747500D02*
X80967501Y-132747500D01*
X80967501Y-129447500D02*
X79507501Y-129447500D01*
X80967501Y-132747500D02*
X80967501Y-129447500D01*
D11*
X67375000Y-80500000D02*
X81875000Y-80500000D01*
X67375000Y-87500000D02*
X67375000Y-80500000D01*
X81875000Y-80500000D02*
X81875000Y-87500000D01*
X81875000Y-87500000D02*
X67375000Y-87500000D01*
D12*
X80994301Y-126743400D02*
X80994301Y-128851600D01*
X80994301Y-128851600D02*
X81680101Y-128851600D01*
X81680101Y-126337000D02*
X81680101Y-126743400D01*
X81680101Y-126743400D02*
X80994301Y-126743400D01*
X81680101Y-128851600D02*
X81680101Y-129258000D01*
X81680101Y-129258000D02*
X85794901Y-129258000D01*
X85794901Y-126337000D02*
X81680101Y-126337000D01*
X85794901Y-126743400D02*
X85794901Y-126337000D01*
X85794901Y-128851600D02*
X86480701Y-128851600D01*
X85794901Y-129258000D02*
X85794901Y-128851600D01*
X86480701Y-126743400D02*
X85794901Y-126743400D01*
X86480701Y-128851600D02*
X86480701Y-126743400D01*
D11*
X75000000Y-88000000D02*
X82000000Y-88000000D01*
X82000000Y-120000000D01*
X75000000Y-120000000D01*
X75000000Y-88000000D01*
D10*
X106270000Y-95350000D02*
X106270000Y-98650000D01*
X106270000Y-98650000D02*
X107730000Y-98650000D01*
X107730000Y-95350000D02*
X106270000Y-95350000D01*
X107730000Y-98650000D02*
X107730000Y-95350000D01*
X101051598Y-129120001D02*
X101051598Y-131280001D01*
X101051598Y-131280001D02*
X101971598Y-131280001D01*
X101971598Y-129120001D02*
X101051598Y-129120001D01*
X101971598Y-131280001D02*
X101971598Y-129120001D01*
X78657500Y-128437500D02*
X78657500Y-129357500D01*
X78657500Y-129357500D02*
X80817500Y-129357500D01*
X80817500Y-128437500D02*
X78657500Y-128437500D01*
X80817500Y-129357500D02*
X80817500Y-128437500D01*
X97270000Y-107850000D02*
X97270000Y-111150000D01*
X97270000Y-111150000D02*
X98730000Y-111150000D01*
X98730000Y-107850000D02*
X97270000Y-107850000D01*
X98730000Y-111150000D02*
X98730000Y-107850000D01*
D11*
X102105000Y-135000000D02*
X102105000Y-144425000D01*
X102105000Y-144425000D02*
X109105000Y-144425000D01*
X109105000Y-135000000D02*
X102105000Y-135000000D01*
X109105000Y-144425000D02*
X109105000Y-135000000D01*
D12*
X96506800Y-122695901D02*
X96506800Y-124804101D01*
X96506800Y-124804101D02*
X97192600Y-124804101D01*
X97192600Y-122289501D02*
X97192600Y-122695901D01*
X97192600Y-122695901D02*
X96506800Y-122695901D01*
X97192600Y-124804101D02*
X97192600Y-125210501D01*
X97192600Y-125210501D02*
X101307400Y-125210501D01*
X101307400Y-122289501D02*
X97192600Y-122289501D01*
X101307400Y-122695901D02*
X101307400Y-122289501D01*
X101307400Y-124804101D02*
X101993200Y-124804101D01*
X101307400Y-125210501D02*
X101307400Y-124804101D01*
X101993200Y-122695901D02*
X101307400Y-122695901D01*
X101993200Y-124804101D02*
X101993200Y-122695901D01*
D10*
X93775000Y-123500000D02*
X93775000Y-126000000D01*
X93775000Y-126000000D02*
X96225000Y-126000000D01*
X96225000Y-123500000D02*
X93775000Y-123500000D01*
X96225000Y-126000000D02*
X96225000Y-123500000D01*
X81787501Y-129597501D02*
X81787501Y-132097501D01*
X84987501Y-129597501D02*
X81787501Y-129597501D01*
X84987501Y-129597501D02*
X84987501Y-132097501D01*
X84987501Y-132097501D02*
X81787501Y-132097501D01*
D11*
X70000000Y-94500000D02*
X80000000Y-94500000D01*
X70000000Y-124500000D02*
X70000000Y-94500000D01*
X80000000Y-94500000D02*
X81000000Y-94500000D01*
X81000000Y-94500000D02*
X81000000Y-124500000D01*
X81000000Y-124500000D02*
X70000000Y-124500000D01*
D10*
X80350000Y-78270000D02*
X80350000Y-79730000D01*
X80350000Y-79730000D02*
X83650000Y-79730000D01*
X83650000Y-78270000D02*
X80350000Y-78270000D01*
X83650000Y-79730000D02*
X83650000Y-78270000D01*
X105850000Y-90270000D02*
X105850000Y-91730000D01*
X105850000Y-91730000D02*
X109150000Y-91730000D01*
X109150000Y-90270000D02*
X105850000Y-90270000D01*
X109150000Y-91730000D02*
X109150000Y-90270000D01*
X90170000Y-102150000D02*
X90170000Y-105450000D01*
X90170000Y-105450000D02*
X91630000Y-105450000D01*
X91630000Y-102150000D02*
X90170000Y-102150000D01*
X91630000Y-105450000D02*
X91630000Y-102150000D01*
X92470000Y-76862500D02*
X92470000Y-80162500D01*
X92470000Y-80162500D02*
X93930000Y-80162500D01*
X93930000Y-76862500D02*
X92470000Y-76862500D01*
X93930000Y-80162500D02*
X93930000Y-76862500D01*
D12*
X102112599Y-131645900D02*
X102112599Y-133754100D01*
X102112599Y-133754100D02*
X102798399Y-133754100D01*
X102798399Y-131239500D02*
X102798399Y-131645900D01*
X102798399Y-131645900D02*
X102112599Y-131645900D01*
X102798399Y-133754100D02*
X102798399Y-134160500D01*
X102798399Y-134160500D02*
X106913199Y-134160500D01*
X106913199Y-131239500D02*
X102798399Y-131239500D01*
X106913199Y-131645900D02*
X106913199Y-131239500D01*
X106913199Y-133754100D02*
X107598999Y-133754100D01*
X106913199Y-134160500D02*
X106913199Y-133754100D01*
X107598999Y-131645900D02*
X106913199Y-131645900D01*
X107598999Y-133754100D02*
X107598999Y-131645900D01*
D10*
X93350000Y-108570000D02*
X93350000Y-110030000D01*
X93350000Y-110030000D02*
X96650000Y-110030000D01*
X96650000Y-108570000D02*
X93350000Y-108570000D01*
X96650000Y-110030000D02*
X96650000Y-108570000D01*
X92470000Y-73437500D02*
X92470000Y-76737500D01*
X92470000Y-76737500D02*
X93930000Y-76737500D01*
X93930000Y-73437500D02*
X92470000Y-73437500D01*
X93930000Y-76737500D02*
X93930000Y-73437500D01*
X109231598Y-126224999D02*
X109231598Y-129524999D01*
X109231598Y-129524999D02*
X110691598Y-129524999D01*
X110691598Y-126224999D02*
X109231598Y-126224999D01*
X110691598Y-129524999D02*
X110691598Y-126224999D01*
D11*
X108125000Y-80500000D02*
X122625000Y-80500000D01*
X108125000Y-87500000D02*
X108125000Y-80500000D01*
X122625000Y-80500000D02*
X122625000Y-87500000D01*
X122625000Y-87500000D02*
X108125000Y-87500000D01*
D10*
X91925000Y-90870000D02*
X91925000Y-92330000D01*
X91925000Y-92330000D02*
X95225000Y-92330000D01*
X95225000Y-90870000D02*
X91925000Y-90870000D01*
X95225000Y-92330000D02*
X95225000Y-90870000D01*
X98800000Y-74517500D02*
X102200000Y-74517500D01*
X98800000Y-78357500D02*
X98800000Y-74517500D01*
X102200000Y-74517500D02*
X102200000Y-78357500D01*
X102200000Y-78357500D02*
X98800000Y-78357500D01*
D11*
X109000000Y-94500000D02*
X119000000Y-94500000D01*
X109000000Y-124500000D02*
X109000000Y-94500000D01*
X119000000Y-94500000D02*
X120000000Y-94500000D01*
X120000000Y-94500000D02*
X120000000Y-124500000D01*
X120000000Y-124500000D02*
X109000000Y-124500000D01*
D10*
X88017500Y-75350000D02*
X91857500Y-75350000D01*
X88017500Y-78750000D02*
X88017500Y-75350000D01*
X91857500Y-75350000D02*
X91857500Y-78750000D01*
X91857500Y-78750000D02*
X88017500Y-78750000D01*
X106055799Y-127300000D02*
G75*
G02*
X104055799Y-127300000I-1000000J0D01*
G01*
X104055799Y-127300000D02*
G75*
G02*
X106055799Y-127300000I1000000J0D01*
G01*
X107725799Y-128150000D02*
X107725799Y-131450000D01*
X107725799Y-131450000D02*
X109185799Y-131450000D01*
X109185799Y-128150000D02*
X107725799Y-128150000D01*
X109185799Y-131450000D02*
X109185799Y-128150000D01*
D11*
X95105000Y-135156361D02*
X95105000Y-144581361D01*
X95105000Y-144581361D02*
X102105000Y-144581361D01*
X102105000Y-135156361D02*
X95105000Y-135156361D01*
X102105000Y-144581361D02*
X102105000Y-135156361D01*
D10*
X93870000Y-102150000D02*
X93870000Y-105450000D01*
X93870000Y-105450000D02*
X95330000Y-105450000D01*
X95330000Y-102150000D02*
X93870000Y-102150000D01*
X95330000Y-105450000D02*
X95330000Y-102150000D01*
X90775000Y-92600000D02*
X90775000Y-102100000D01*
X90775000Y-92600000D02*
X99775000Y-92600000D01*
X90775000Y-102100000D02*
X99775000Y-102100000D01*
X99775000Y-92600000D02*
X99775000Y-102100000D01*
X101400000Y-108500000D02*
G75*
G02*
X99400000Y-108500000I-1000000J0D01*
G01*
X99400000Y-108500000D02*
G75*
G02*
X101400000Y-108500000I1000000J0D01*
G01*
D12*
X88051001Y-122695900D02*
X88051001Y-124804100D01*
X88051001Y-124804100D02*
X88736801Y-124804100D01*
X88736801Y-122289500D02*
X88736801Y-122695900D01*
X88736801Y-122695900D02*
X88051001Y-122695900D01*
X88736801Y-124804100D02*
X88736801Y-125210500D01*
X88736801Y-125210500D02*
X92851601Y-125210500D01*
X92851601Y-122289500D02*
X88736801Y-122289500D01*
X92851601Y-122695900D02*
X92851601Y-122289500D01*
X92851601Y-124804100D02*
X93537401Y-124804100D01*
X92851601Y-125210500D02*
X92851601Y-124804100D01*
X93537401Y-122695900D02*
X92851601Y-122695900D01*
X93537401Y-124804100D02*
X93537401Y-122695900D01*
D10*
X98850000Y-72770000D02*
X98850000Y-74230000D01*
X98850000Y-74230000D02*
X102150000Y-74230000D01*
X102150000Y-72770000D02*
X98850000Y-72770000D01*
X102150000Y-74230000D02*
X102150000Y-72770000D01*
X103041600Y-127400000D02*
X103041600Y-129600000D01*
X103041600Y-129600000D02*
X103981600Y-129600000D01*
X103981600Y-127400000D02*
X103041600Y-127400000D01*
X103981600Y-129600000D02*
X103981600Y-127400000D01*
X95425000Y-90870000D02*
X95425000Y-92330000D01*
X95425000Y-92330000D02*
X98725000Y-92330000D01*
X98725000Y-90870000D02*
X95425000Y-90870000D01*
X98725000Y-92330000D02*
X98725000Y-90870000D01*
X90099999Y-125269999D02*
X90099999Y-126729999D01*
X90099999Y-126729999D02*
X93399999Y-126729999D01*
X93399999Y-125269999D02*
X90099999Y-125269999D01*
X93399999Y-126729999D02*
X93399999Y-125269999D01*
X99481598Y-128450000D02*
X99481598Y-131750000D01*
X99481598Y-131750000D02*
X100941598Y-131750000D01*
X100941598Y-128450000D02*
X99481598Y-128450000D01*
X100941598Y-131750000D02*
X100941598Y-128450000D01*
X109000000Y-89000000D02*
G75*
G02*
X107000000Y-89000000I-1000000J0D01*
G01*
X107000000Y-89000000D02*
G75*
G02*
X109000000Y-89000000I1000000J0D01*
G01*
X93900000Y-126230000D02*
X93900000Y-127170000D01*
X93900000Y-127170000D02*
X96100000Y-127170000D01*
X96100000Y-126230000D02*
X93900000Y-126230000D01*
X96100000Y-127170000D02*
X96100000Y-126230000D01*
X86061701Y-130747500D02*
X86061701Y-132947500D01*
X86061701Y-132947500D02*
X87001701Y-132947500D01*
X87001701Y-130747500D02*
X86061701Y-130747500D01*
X87001701Y-132947500D02*
X87001701Y-130747500D01*
X104061598Y-128650000D02*
X107261598Y-128650000D01*
X104061598Y-131150000D02*
X104061598Y-128650000D01*
X104061598Y-131150000D02*
X107261598Y-131150000D01*
X107261598Y-131150000D02*
X107261598Y-128650000D01*
X98850000Y-78770000D02*
X98850000Y-80230000D01*
X98850000Y-80230000D02*
X102150000Y-80230000D01*
X102150000Y-78770000D02*
X98850000Y-78770000D01*
X102150000Y-80230000D02*
X102150000Y-78770000D01*
X82937501Y-133097500D02*
G75*
G02*
X80937501Y-133097500I-1000000J0D01*
G01*
X80937501Y-133097500D02*
G75*
G02*
X82937501Y-133097500I1000000J0D01*
G01*
X93500000Y-110600000D02*
G75*
G02*
X91500000Y-110600000I-1000000J0D01*
G01*
X91500000Y-110600000D02*
G75*
G02*
X93500000Y-110600000I1000000J0D01*
G01*
D11*
X80995000Y-135000000D02*
X80995000Y-144425000D01*
X80995000Y-144425000D02*
X87995000Y-144425000D01*
X87995000Y-135000000D02*
X80995000Y-135000000D01*
X87995000Y-144425000D02*
X87995000Y-135000000D01*
D10*
X85037501Y-133097500D02*
G75*
G02*
X83037501Y-133097500I-1000000J0D01*
G01*
X83037501Y-133097500D02*
G75*
G02*
X85037501Y-133097500I1000000J0D01*
G01*
M02*
