M48
; DRILL file {KiCad 9.0.0} date 2025-04-22T19:19:22+0200
; FORMAT={-:-/ absolute / metric / decimal}
; #@! TF.CreationDate,2025-04-22T19:19:22+02:00
; #@! TF.GenerationSoftware,Kicad,Pcbnew,9.0.0
; #@! TF.FileFunction,Plated,1,4,PTH
FMAT,2
METRIC
; #@! TA.AperFunction,Plated,PTH,ViaDrill
T1C0.300
; #@! TA.AperFunction,Plated,PTH,ComponentDrill
T2C0.800
; #@! TA.AperFunction,Plated,PTH,ComponentDrill
T3C0.900
; #@! TA.AperFunction,Plated,PTH,ComponentDrill
T4C0.965
; #@! TA.AperFunction,Plated,PTH,ComponentDrill
T5C1.000
; #@! TA.AperFunction,Plated,PTH,ComponentDrill
T6C1.300
%
G90
G05
T1
X70.85Y-89.817
X70.85Y-90.817
X71.6Y-94.818
X72.0Y-98.0
X72.0Y-107.0
X72.0Y-132.0
X72.051Y-90.367
X72.35Y-86.317
X72.799Y-88.399
X74.0Y-86.0
X74.0Y-105.0
X74.0Y-110.0
X74.0Y-115.0
X74.0Y-119.0
X74.0Y-134.0
X74.1Y-93.3
X74.7Y-98.317
X75.6Y-98.317
X76.0Y-86.0
X76.0Y-136.0
X76.6Y-92.817
X77.0Y-100.0
X77.0Y-105.0
X77.0Y-110.0
X77.0Y-115.0
X77.0Y-119.0
X77.0Y-127.0
X77.35Y-95.317
X77.5Y-130.25
X77.6Y-89.4
X77.726Y-92.019
X78.0Y-86.0
X78.0Y-128.0
X78.0Y-136.0
X78.0Y-138.0
X79.0Y-121.0
X79.0Y-134.75
X79.238Y-128.197
X80.0Y-97.0
X80.0Y-136.0
X80.0Y-138.0
X81.0Y-137.0
X81.4Y-88.317
X81.4Y-91.067
X81.5Y-89.6
X81.5Y-92.0
X81.75Y-102.0
X82.0Y-96.0
X82.0Y-98.0
X82.4Y-88.6
X82.859Y-135.555
X83.0Y-81.0
X83.1Y-125.0
X83.8Y-79.8
X83.859Y-135.555
X84.0Y-90.0
X84.0Y-125.8
X84.859Y-135.555
X85.4Y-133.3
X85.859Y-135.555
X86.0Y-125.0
X86.5Y-126.0
X86.7Y-133.3
X86.859Y-135.555
X87.5Y-125.0
X87.5Y-126.5
X87.65Y-127.471
X88.0Y-89.0
X88.0Y-108.0
X88.989Y-119.611
X89.0Y-86.5
X89.0Y-90.0
X89.0Y-93.0
X89.0Y-96.0
X89.0Y-99.0
X89.0Y-102.0
X89.0Y-105.0
X89.0Y-112.5
X89.0Y-126.5
X89.5Y-108.0
X89.838Y-128.398
X89.9Y-115.8
X90.346Y-86.785
X90.5Y-127.5
X90.8Y-105.7
X91.0Y-110.5
X91.8Y-99.4
X92.0Y-77.0
X92.0Y-89.0
X92.0Y-121.0
X92.0Y-127.5
X92.0Y-129.0
X92.1Y-116.5
X92.2Y-73.8
X92.5Y-109.0
X92.8Y-95.4
X93.0Y-90.0
X93.527Y-128.481
X93.6Y-127.2
X94.0Y-86.5
X94.0Y-95.4
X94.0Y-108.0
X94.0Y-119.0
X94.2Y-99.4
X94.6Y-105.685
X95.0Y-74.0
X95.0Y-76.0
X95.0Y-78.0
X95.0Y-107.0
X95.0Y-111.0
X95.0Y-113.6
X95.5Y-89.5
X95.5Y-136.0
X95.5Y-137.081
X95.6Y-99.2
X95.945Y-135.081
X96.0Y-86.5
X96.0Y-117.0
X96.2Y-103.8
X96.25Y-122.5
X96.5Y-83.0
X96.6Y-79.8
X96.6Y-95.4
X96.6Y-112.0
X96.934Y-104.434
X97.0Y-74.0
X97.0Y-76.0
X97.0Y-78.0
X97.0Y-99.0
X97.0Y-120.0
X97.373Y-107.219
X97.445Y-135.081
X97.7Y-90.1
X98.0Y-86.5
X98.0Y-95.4
X98.0Y-99.0
X98.0Y-113.0
X98.0Y-115.0
X98.0Y-129.0
X98.4Y-73.8
X98.481Y-111.492
X98.5Y-78.0
X98.5Y-83.0
X98.5Y-89.3
X98.504Y-107.256
X98.6Y-102.2
X98.6Y-104.8
X98.6Y-105.8
X99.0Y-118.0
X99.2Y-129.5
X99.5Y-113.0
X99.7Y-128.0
X100.5Y-80.5
X100.5Y-82.5
X100.6Y-110.0
X100.9Y-104.723
X101.3Y-116.0
X101.4Y-101.8
X101.5Y-77.5
X101.5Y-92.5
X101.5Y-94.5
X101.5Y-96.5
X101.5Y-98.5
X101.5Y-100.5
X101.5Y-105.5
X101.6Y-90.7
X101.6Y-127.9
X101.6Y-128.9
X101.75Y-122.0
X102.0Y-83.0
X102.0Y-125.0
X102.5Y-93.0
X102.6Y-127.0
X102.75Y-110.75
X102.75Y-121.0
X103.0Y-83.0
X103.0Y-125.0
X103.0Y-126.0
X103.5Y-127.0
X104.0Y-135.0
X104.356Y-128.4
X105.136Y-135.795
X105.196Y-113.181
X105.223Y-100.69
X105.25Y-93.0
X105.25Y-108.25
X105.5Y-121.0
X105.75Y-94.0
X106.0Y-74.0
X106.0Y-82.5
X106.0Y-114.75
X106.0Y-116.5
X106.0Y-118.25
X106.0Y-125.0
X106.136Y-135.795
X106.5Y-76.5
X106.5Y-85.5
X107.0Y-81.0
X107.136Y-135.795
X107.25Y-119.5
X107.5Y-79.0
X108.0Y-74.0
X108.0Y-87.5
X108.0Y-100.0
X108.0Y-125.0
X108.136Y-135.795
X108.737Y-127.8
X108.746Y-96.838
X108.8Y-112.1
X109.0Y-79.5
X109.0Y-93.0
X109.0Y-103.0
X109.0Y-109.0
X109.5Y-88.5
X110.0Y-83.0
X110.0Y-84.0
X110.0Y-87.0
X110.0Y-114.0
X110.0Y-116.0
X110.0Y-118.0
X110.0Y-135.0
X110.0Y-137.0
X110.5Y-92.9
X110.5Y-132.0
X111.0Y-96.0
X111.0Y-103.0
X111.0Y-105.0
X111.5Y-89.0
X111.5Y-114.0
X111.5Y-119.0
X112.0Y-84.0
X112.0Y-132.0
X112.5Y-75.7
X112.5Y-87.0
X112.8Y-76.9
X113.0Y-85.0
X113.0Y-96.0
X113.0Y-105.0
X113.0Y-135.0
X113.0Y-137.0
X114.0Y-83.5
X114.0Y-89.0
X114.0Y-98.0
X114.0Y-106.0
X114.0Y-112.0
X114.0Y-114.0
X114.0Y-116.0
X114.0Y-118.0
X114.0Y-120.0
X114.5Y-80.5
X115.0Y-87.0
X115.0Y-135.0
X115.5Y-85.0
X116.0Y-79.0
X116.0Y-80.5
X116.0Y-109.0
X116.0Y-111.0
X116.0Y-113.0
X116.0Y-115.0
X116.0Y-117.0
X116.0Y-119.0
X116.0Y-121.0
X116.5Y-89.0
X117.0Y-86.5
X117.0Y-96.0
X117.0Y-128.0
X117.0Y-133.0
X117.5Y-104.5
X118.0Y-98.0
X118.0Y-108.0
X118.0Y-110.0
X118.0Y-112.0
X118.0Y-115.0
X118.0Y-118.0
X118.0Y-121.0
X118.5Y-88.0
X119.0Y-131.0
T2
X71.875Y-84.0
X81.875Y-82.3
X81.875Y-84.0
X81.875Y-85.7
X108.125Y-82.3
X108.125Y-84.0
X108.125Y-85.7
X118.125Y-84.0
T3
X79.204Y-77.796
X81.0Y-76.0
X93.86Y-131.6
X96.4Y-131.6
X109.0Y-76.0
X110.796Y-77.796
X110.841Y-91.0
X113.0Y-91.0
X115.159Y-91.0
X117.318Y-91.0
T4
X73.204Y-130.204
X75.0Y-132.0
X76.796Y-133.796
X92.46Y-84.2
X95.0Y-84.2
X97.54Y-84.2
X113.355Y-133.448
X115.151Y-131.651
X116.948Y-129.855
T5
X73.0Y-124.5
X78.0Y-124.5
X86.22Y-74.0
X86.22Y-76.54
X86.22Y-79.08
X86.22Y-81.62
X86.22Y-84.16
X86.22Y-86.7
X86.22Y-89.24
X86.22Y-91.78
X86.22Y-94.32
X86.22Y-96.86
X86.22Y-99.4
X86.22Y-101.94
X86.22Y-104.48
X86.22Y-107.02
X86.22Y-109.56
X86.22Y-112.1
X86.22Y-114.64
X86.22Y-117.18
X86.22Y-119.72
X86.22Y-122.26
X104.0Y-74.0
X104.0Y-76.54
X104.0Y-79.08
X104.0Y-81.62
X104.0Y-84.16
X104.0Y-86.7
X104.0Y-89.24
X104.0Y-91.78
X104.0Y-94.32
X104.0Y-96.86
X104.0Y-99.4
X104.0Y-101.94
X104.0Y-104.48
X104.0Y-107.02
X104.0Y-109.56
X104.0Y-112.1
X104.0Y-114.64
X104.0Y-117.18
X104.0Y-119.72
X104.0Y-122.26
X112.0Y-124.5
X117.0Y-124.5
T6
X73.601Y-138.46
X78.0Y-141.0
X112.0Y-141.0
X116.399Y-138.46
M30
